<?xml version="1.0" encoding="UTF-8"?>
<svg version="1.1" xmlns="http://www.w3.org/2000/svg" width="192" height="192">
<path d="M0 0 C63.36 0 126.72 0 192 0 C192 63.36 192 126.72 192 192 C128.64 192 65.28 192 0 192 C0 128.64 0 65.28 0 0 Z " fill="#2B2D42" transform="translate(0,0)"/>
<path d="M0 0 C4.03906942 3.26563059 5.90382064 5.91771387 7 11 C7 13.64 7 16.28 7 19 C1.06 19 -4.88 19 -11 19 C-11.66 16.36 -12.32 13.72 -13 11 C-14.32 11 -15.64 11 -17 11 C-17.41890218 13.78938212 -17.41890218 13.78938212 -17 17 C-13.09774199 21.42978548 -8.46548151 24.78524781 -3.72851562 28.25 C3.03216847 33.31062903 7.08838568 38.81639925 8.32421875 47.19921875 C8.69302349 54.48629174 6.19353076 60.19715514 1.75 65.875 C-5.26621435 71.29662018 -12.38994969 71.83435212 -21 71 C-27.24456231 69.76549015 -30.45231906 67.21717786 -34 62 C-37.05288703 55.92602685 -36.12435467 49.65297491 -36 43 C-30.06 43 -24.12 43 -18 43 C-17.67 46.96 -17.34 50.92 -17 55 C-15.35 55 -13.7 55 -12 55 C-11.35250638 48.84728428 -11.35250638 48.84728428 -13.875 43.4375 C-14.90625 42.633125 -15.9375 41.82875 -17 41 C-18.62709188 39.71096944 -20.25188683 38.41903687 -21.875 37.125 C-22.73867187 36.44050781 -23.60234375 35.75601563 -24.4921875 35.05078125 C-30.57517525 30.07637538 -35.39075009 26.06639401 -36.37109375 17.9140625 C-36.59192314 6.97651285 -36.59192314 6.97651285 -32.5625 2.36328125 C-23.22792981 -5.78113124 -10.45039748 -6.45527571 0 0 Z " fill="#F3EFEC" transform="translate(108,56)"/>
<path d="M0 0 C3.90198262 1.18332678 6.64727939 3.33475859 9.03515625 6.6171875 C9.91842234 11.11381485 9.38225367 12.99241214 7.16015625 16.9921875 C5.02780271 19.62627129 4.31617298 20.44101624 1.046875 20.890625 C-3.4451169 21.08691372 -5.3145368 21.13201383 -8.96484375 18.2421875 C-11.85616331 14.44733058 -12.59877874 12.41698101 -11.96484375 7.6171875 C-9.20619219 2.537604 -5.98377829 -0.5764719 0 0 Z " fill="#B16B76" transform="translate(127.96484375,112.3828125)"/>
<path d="M0 0 C0.66 0.33 1.32 0.66 2 1 C-0.64 3.64 -3.28 6.28 -6 9 C-6 6 -6 6 -3.5625 3.375 C-2.716875 2.59125 -1.87125 1.8075 -1 1 C-0.67 0.67 -0.34 0.34 0 0 Z " fill="#D0D4DA" transform="translate(80,55)"/>
</svg>
